<svg width="46" height="46" viewBox="0 0 46 46" fill="none" xmlns="http://www.w3.org/2000/svg">
<g id="iconamoon:gift-thin">
<g id="Group">
<path id="Vector" d="M8 21.125V36.125C8 37.1196 8.39509 38.0734 9.09835 38.7766C9.80161 39.4799 10.7554 39.875 11.75 39.875H34.25C35.2446 39.875 36.1984 39.4799 36.9016 38.7766C37.6049 38.0734 38 37.1196 38 36.125V21.125" stroke="black" stroke-linecap="round" stroke-linejoin="round"/>
<path id="Vector_2" d="M23 10.8125C23 9.07202 22.3086 7.40282 21.0779 6.17211C19.8472 4.9414 18.178 4.25 16.4375 4.25C15.1943 4.25 14.002 4.74386 13.1229 5.62294C12.2439 6.50201 11.75 7.6943 11.75 8.9375C11.75 10.1807 12.2439 11.373 13.1229 12.2521C14.002 13.1311 15.1943 13.625 16.4375 13.625H23M23 10.8125V13.625M23 10.8125C23 9.07202 23.6914 7.40282 24.9221 6.17211C26.1528 4.9414 27.822 4.25 29.5625 4.25C30.8057 4.25 31.998 4.74386 32.8771 5.62294C33.7561 6.50201 34.25 7.6943 34.25 8.9375C34.25 9.55307 34.1288 10.1626 33.8932 10.7313C33.6576 11.3 33.3123 11.8168 32.8771 12.2521C32.4418 12.6873 31.925 13.0326 31.3563 13.2682C30.7876 13.5038 30.1781 13.625 29.5625 13.625H23" stroke="black" stroke-linejoin="round"/>
<path id="Vector_3" d="M23 21.125V39.875M6.125 13.625H39.875V21.125H6.125V13.625Z" stroke="black" stroke-linecap="round" stroke-linejoin="round"/>
</g>
</g>
</svg>
