<svg width="46" height="46" viewBox="0 0 46 46" fill="none" xmlns="http://www.w3.org/2000/svg">
<g id="teenyicons:school-outline" clip-path="url(#clip0_26_187)">
<path id="Vector" d="M23 14L35 20V44H11V20L23 14ZM23 14V0.5M0.5 44H45.5M5 44V26H11M41 44V26H35M20 44V35H26V44M23 2H32V8H23M23 29C22.2044 29 21.4413 28.6839 20.8787 28.1213C20.3161 27.5587 20 26.7956 20 26C20 25.2044 20.3161 24.4413 20.8787 23.8787C21.4413 23.3161 22.2044 23 23 23C23.7956 23 24.5587 23.3161 25.1213 23.8787C25.6839 24.4413 26 25.2044 26 26C26 26.7956 25.6839 27.5587 25.1213 28.1213C24.5587 28.6839 23.7956 29 23 29Z" stroke="black"/>
</g>
<defs>
<clipPath id="clip0_26_187">
<rect width="45" height="45" fill="white" transform="translate(0.5 0.5)"/>
</clipPath>
</defs>
</svg>
