<svg width="46" height="46" viewBox="0 0 46 46" fill="none" xmlns="http://www.w3.org/2000/svg">
<g id="clarity:calendar-line" clip-path="url(#clip0_26_191)">
<path id="Vector" d="M40.8123 8H36.7498V10.5H40.4998V38H5.49983V10.5H9.24983V8H5.18733C4.89513 8.00488 4.60675 8.06728 4.33867 8.18363C4.07058 8.29999 3.82805 8.46801 3.62491 8.67811C3.42177 8.88821 3.26202 9.13627 3.15477 9.40813C3.04751 9.67998 2.99487 9.9703 2.99983 10.2625V38.2375C2.99487 38.5297 3.04751 38.82 3.15477 39.0919C3.26202 39.3637 3.42177 39.6118 3.62491 39.8219C3.82805 40.032 4.07058 40.2 4.33867 40.3164C4.60675 40.4327 4.89513 40.4951 5.18733 40.5H40.8123C41.1045 40.4951 41.3929 40.4327 41.661 40.3164C41.9291 40.2 42.1716 40.032 42.3748 39.8219C42.5779 39.6118 42.7376 39.3637 42.8449 39.0919C42.9522 38.82 43.0048 38.5297 42.9998 38.2375V10.2625C43.0048 9.9703 42.9522 9.67998 42.8449 9.40813C42.7376 9.13627 42.5779 8.88821 42.3748 8.67811C42.1716 8.46801 41.9291 8.29999 41.661 8.18363C41.3929 8.06728 41.1045 8.00488 40.8123 8Z" fill="black"/>
<path id="Vector_2" d="M10.5 18H13V20.5H10.5V18Z" fill="black"/>
<path id="Vector_3" d="M18 18H20.5V20.5H18V18Z" fill="black"/>
<path id="Vector_4" d="M25.5 18H28V20.5H25.5V18Z" fill="black"/>
<path id="Vector_5" d="M33 18H35.5V20.5H33V18Z" fill="black"/>
<path id="Vector_6" d="M10.5 24.25H13V26.75H10.5V24.25Z" fill="black"/>
<path id="Vector_7" d="M18 24.25H20.5V26.75H18V24.25Z" fill="black"/>
<path id="Vector_8" d="M25.5 24.25H28V26.75H25.5V24.25Z" fill="black"/>
<path id="Vector_9" d="M33 24.25H35.5V26.75H33V24.25Z" fill="black"/>
<path id="Vector_10" d="M10.5 30.5H13V33H10.5V30.5Z" fill="black"/>
<path id="Vector_11" d="M18 30.5H20.5V33H18V30.5Z" fill="black"/>
<path id="Vector_12" d="M25.5 30.5H28V33H25.5V30.5Z" fill="black"/>
<path id="Vector_13" d="M33 30.5H35.5V33H33V30.5Z" fill="black"/>
<path id="Vector_14" d="M13 13C13.3315 13 13.6495 12.8683 13.8839 12.6339C14.1183 12.3995 14.25 12.0815 14.25 11.75V4.25C14.25 3.91848 14.1183 3.60054 13.8839 3.36612C13.6495 3.1317 13.3315 3 13 3C12.6685 3 12.3505 3.1317 12.1161 3.36612C11.8817 3.60054 11.75 3.91848 11.75 4.25V11.75C11.75 12.0815 11.8817 12.3995 12.1161 12.6339C12.3505 12.8683 12.6685 13 13 13Z" fill="black"/>
<path id="Vector_15" d="M33 13C33.3315 13 33.6495 12.8683 33.8839 12.6339C34.1183 12.3995 34.25 12.0815 34.25 11.75V4.25C34.25 3.91848 34.1183 3.60054 33.8839 3.36612C33.6495 3.1317 33.3315 3 33 3C32.6685 3 32.3505 3.1317 32.1161 3.36612C31.8817 3.60054 31.75 3.91848 31.75 4.25V11.75C31.75 12.0815 31.8817 12.3995 32.1161 12.6339C32.3505 12.8683 32.6685 13 33 13Z" fill="black"/>
<path id="Vector_16" d="M16.75 8H29.25V10.5H16.75V8Z" fill="black"/>
</g>
<defs>
<clipPath id="clip0_26_191">
<rect width="45" height="45" fill="white" transform="translate(0.5 0.5)"/>
</clipPath>
</defs>
</svg>
