<svg width="46" height="46" viewBox="0 0 46 46" fill="none" xmlns="http://www.w3.org/2000/svg">
<g id="ph:book-thin">
<path id="Vector" d="M37.375 5.03125H12.9375C11.6031 5.03125 10.3234 5.56133 9.37987 6.50487C8.43633 7.44841 7.90625 8.72813 7.90625 10.0625V40.25C7.90625 40.4406 7.98198 40.6234 8.11677 40.7582C8.25156 40.893 8.43438 40.9688 8.625 40.9688H34.5C34.6906 40.9688 34.8734 40.893 35.0082 40.7582C35.143 40.6234 35.2188 40.4406 35.2188 40.25C35.2188 40.0594 35.143 39.8766 35.0082 39.7418C34.8734 39.607 34.6906 39.5312 34.5 39.5312H9.34375V38.8125C9.34375 37.8594 9.72238 36.9453 10.3963 36.2713C11.0703 35.5974 11.9844 35.2188 12.9375 35.2188H37.375C37.5656 35.2188 37.7484 35.143 37.8832 35.0082C38.018 34.8734 38.0938 34.6906 38.0938 34.5V5.75C38.0938 5.55938 38.018 5.37656 37.8832 5.24177C37.7484 5.10698 37.5656 5.03125 37.375 5.03125ZM36.6562 33.7812H12.9375C12.2679 33.781 11.6049 33.9148 10.9877 34.1746C10.3706 34.4344 9.81159 34.8151 9.34375 35.2942V10.0625C9.34375 9.10938 9.72238 8.19529 10.3963 7.52134C11.0703 6.84738 11.9844 6.46875 12.9375 6.46875H36.6562V33.7812Z" fill="black"/>
</g>
</svg>
