<svg width="46" height="46" viewBox="0 0 46 46" fill="none" xmlns="http://www.w3.org/2000/svg">
<g id="ph:hand-thin">
<path id="Vector" d="M33.7812 9.34372C32.7196 9.34294 31.6954 9.73534 30.9062 10.4452V7.90622C30.9047 6.79147 30.4716 5.7206 29.6978 4.9182C28.924 4.11581 27.8695 3.64424 26.7555 3.60241C25.6416 3.56057 24.5547 3.95172 23.7228 4.69381C22.891 5.43591 22.3788 6.47129 22.2938 7.58278C21.6747 7.02466 20.9071 6.65791 20.0839 6.52692C19.2607 6.39593 18.4172 6.50631 17.6554 6.8447C16.8937 7.18309 16.2463 7.73499 15.7917 8.43363C15.337 9.13226 15.0946 9.94768 15.0937 10.7812V24.7968L13.0722 21.5517C12.5022 20.56 11.5616 19.8353 10.4574 19.537C9.35308 19.2388 8.17556 19.3915 7.18383 19.9615C6.19211 20.5314 5.46742 21.472 5.1692 22.5763C4.87097 23.6806 5.02363 24.8581 5.5936 25.8498C11.579 38.4747 14.7648 42.4062 22.9999 42.4062C27.0017 42.4019 30.8384 40.8103 33.6681 37.9806C36.4978 35.1509 38.0894 31.3143 38.0937 27.3125V13.6562C38.0937 12.5125 37.6393 11.4156 36.8306 10.6068C36.0218 9.79807 34.9249 9.34372 33.7812 9.34372ZM36.6562 27.3125C36.6519 30.933 35.2117 34.404 32.6516 36.9642C30.0915 39.5243 26.6205 40.9644 22.9999 40.9687C16.2994 40.9687 13.3705 38.9005 6.88016 25.2083L6.85321 25.1562C6.48311 24.4966 6.38786 23.7177 6.58809 22.9883C6.78832 22.259 7.2679 21.6379 7.92291 21.2597C8.57791 20.8815 9.35557 20.7766 10.0874 20.9678C10.8191 21.159 11.4461 21.6309 11.8323 22.2812C11.837 22.2881 11.8412 22.2953 11.8449 22.3028L15.2015 27.6934C15.2839 27.8264 15.4075 27.9289 15.5535 27.9853C15.6995 28.0417 15.8599 28.0488 16.0104 28.0057C16.1608 27.9626 16.2931 27.8716 16.3871 27.7465C16.4811 27.6214 16.5317 27.469 16.5312 27.3125V10.7812C16.5312 10.0187 16.8341 9.28746 17.3732 8.74829C17.9124 8.20912 18.6437 7.90622 19.4062 7.90622C20.1687 7.90622 20.8999 8.20912 21.4391 8.74829C21.9783 9.28746 22.2812 10.0187 22.2812 10.7812V21.5625C22.2812 21.7531 22.3569 21.9359 22.4917 22.0707C22.6265 22.2055 22.8093 22.2812 22.9999 22.2812C23.1905 22.2812 23.3734 22.2055 23.5082 22.0707C23.643 21.9359 23.7187 21.7531 23.7187 21.5625V7.90622C23.7187 7.14372 24.0216 6.41246 24.5607 5.87329C25.0999 5.33412 25.8312 5.03122 26.5937 5.03122C27.3562 5.03122 28.0874 5.33412 28.6266 5.87329C29.1658 6.41246 29.4687 7.14372 29.4687 7.90622V21.5625C29.4687 21.7531 29.5444 21.9359 29.6792 22.0707C29.814 22.2055 29.9968 22.2812 30.1874 22.2812C30.378 22.2812 30.5609 22.2055 30.6957 22.0707C30.8304 21.9359 30.9062 21.7531 30.9062 21.5625V13.6562C30.9062 12.8937 31.2091 12.1625 31.7482 11.6233C32.2874 11.0841 33.0187 10.7812 33.7812 10.7812C34.5437 10.7812 35.2749 11.0841 35.8141 11.6233C36.3533 12.1625 36.6562 12.8937 36.6562 13.6562V27.3125Z" fill="black"/>
</g>
</svg>
