<svg width="114" height="114" viewBox="0 0 114 114" fill="none" xmlns="http://www.w3.org/2000/svg">
<g filter="url(#filter0_d_26_148)">
<rect x="7" y="7" width="100" height="100" rx="40" fill="white"/>
<g clip-path="url(#clip0_26_148)">
<path d="M57 48L69 54V78H45V54L57 48ZM57 48V34.5M34.5 78H79.5M39 78V60H45M75 78V60H69M54 78V69H60V78M57 36H66V42H57M57 63C56.2044 63 55.4413 62.6839 54.8787 62.1213C54.3161 61.5587 54 60.7956 54 60C54 59.2044 54.3161 58.4413 54.8787 57.8787C55.4413 57.3161 56.2044 57 57 57C57.7956 57 58.5587 57.3161 59.1213 57.8787C59.6839 58.4413 60 59.2044 60 60C60 60.7956 59.6839 61.5587 59.1213 62.1213C58.5587 62.6839 57.7956 63 57 63Z" stroke="black"/>
</g>
</g>
<defs>
<filter id="filter0_d_26_148" x="0" y="0" width="114" height="114" filterUnits="userSpaceOnUse" color-interpolation-filters="sRGB">
<feFlood flood-opacity="0" result="BackgroundImageFix"/>
<feColorMatrix in="SourceAlpha" type="matrix" values="0 0 0 0 0 0 0 0 0 0 0 0 0 0 0 0 0 0 127 0" result="hardAlpha"/>
<feOffset/>
<feGaussianBlur stdDeviation="3.5"/>
<feComposite in2="hardAlpha" operator="out"/>
<feColorMatrix type="matrix" values="0 0 0 0 0 0 0 0 0 0 0 0 0 0 0 0 0 0 0.14 0"/>
<feBlend mode="normal" in2="BackgroundImageFix" result="effect1_dropShadow_26_148"/>
<feBlend mode="normal" in="SourceGraphic" in2="effect1_dropShadow_26_148" result="shape"/>
</filter>
<clipPath id="clip0_26_148">
<rect width="45" height="45" fill="white" transform="translate(34.5 34.5)"/>
</clipPath>
</defs>
</svg>
