<svg width="114" height="114" viewBox="0 0 114 114" fill="none" xmlns="http://www.w3.org/2000/svg">
<g filter="url(#filter0_d_26_121)">
<rect x="7" y="7" width="100" height="100" rx="40" fill="white"/>
<path d="M51.75 71H62.25M43 81.5H71C71.9283 81.5 72.8185 81.1313 73.4749 80.4749C74.1313 79.8185 74.5 78.9283 74.5 78V36C74.5 35.0717 74.1313 34.1815 73.4749 33.5251C72.8185 32.8687 71.9283 32.5 71 32.5H43C42.0717 32.5 41.1815 32.8687 40.5251 33.5251C39.8687 34.1815 39.5 35.0717 39.5 36V78C39.5 78.9283 39.8687 79.8185 40.5251 80.4749C41.1815 81.1313 42.0717 81.5 43 81.5Z" stroke="black"/>
</g>
<defs>
<filter id="filter0_d_26_121" x="0" y="0" width="114" height="114" filterUnits="userSpaceOnUse" color-interpolation-filters="sRGB">
<feFlood flood-opacity="0" result="BackgroundImageFix"/>
<feColorMatrix in="SourceAlpha" type="matrix" values="0 0 0 0 0 0 0 0 0 0 0 0 0 0 0 0 0 0 127 0" result="hardAlpha"/>
<feOffset/>
<feGaussianBlur stdDeviation="3.5"/>
<feComposite in2="hardAlpha" operator="out"/>
<feColorMatrix type="matrix" values="0 0 0 0 0 0 0 0 0 0 0 0 0 0 0 0 0 0 0.14 0"/>
<feBlend mode="normal" in2="BackgroundImageFix" result="effect1_dropShadow_26_121"/>
<feBlend mode="normal" in="SourceGraphic" in2="effect1_dropShadow_26_121" result="shape"/>
</filter>
</defs>
</svg>
