<svg width="42" height="42" viewBox="0 0 42 42" fill="none" xmlns="http://www.w3.org/2000/svg">
<g id="fluent-emoji-high-contrast:money-bag">
<g id="Group">
<path id="Vector" d="M20.7899 25.3903H20.8818C22.8505 25.4428 24.4255 27.0441 24.4255 29.0128C24.4255 30.6928 23.2837 32.0972 21.7349 32.5172V33.9872C21.7349 34.5122 21.3149 34.9322 20.7899 34.9322C20.2649 34.9322 19.8449 34.5122 19.8449 33.9872V32.5172C19.0737 32.3099 18.3923 31.8543 17.906 31.2208C17.4196 30.5874 17.1555 29.8114 17.1543 29.0128C17.1543 28.4878 17.5743 28.0678 18.0993 28.0678C18.6243 28.0678 19.0443 28.4878 19.0443 29.0128C19.0443 29.9841 19.8187 30.7585 20.7768 30.7585C21.7349 30.7585 22.5224 29.971 22.5224 29.0128C22.5224 28.0547 21.7349 27.2672 20.7768 27.2672H20.6849C19.7407 27.2416 18.8437 26.8489 18.1845 26.1725C17.5252 25.496 17.1557 24.5893 17.1543 23.6447C17.1543 21.9647 18.2962 20.5603 19.8449 20.1403V18.6703C19.8449 18.1453 20.2649 17.7253 20.7899 17.7253C21.3149 17.7253 21.7349 18.1453 21.7349 18.6703V20.1403C23.2837 20.5603 24.4255 21.9647 24.4255 23.6447C24.4255 24.1697 24.0055 24.5897 23.4805 24.5897C22.9555 24.5897 22.5355 24.1697 22.5355 23.6447C22.5355 22.6866 21.748 21.8991 20.7899 21.8991C19.8318 21.8991 19.0443 22.6866 19.0443 23.6447C19.0443 24.6028 19.8318 25.3903 20.7899 25.3903Z" fill="black"/>
<path id="Vector_2" d="M13.8232 6.69375L17.4799 10.9725L17.0848 11.4135C9.55894 13.1014 3.9375 19.8227 3.9375 27.8578C3.9375 34.9217 9.6705 40.6547 16.7344 40.6547H24.8325C31.8964 40.6547 37.6294 34.923 37.6294 27.8591C37.6425 19.8227 32.0211 13.1014 24.4952 11.4135C24.5258 11.1361 24.4757 10.8559 24.3508 10.6063L27.4614 7.0455L27.6623 6.73575C27.8967 6.22431 27.9567 5.64999 27.833 5.10113C27.7092 4.55227 27.4086 4.05926 26.9773 3.69793C26.546 3.3366 26.008 3.12695 25.446 3.10122C24.8839 3.0755 24.329 3.23513 23.8665 3.55556L22.7601 2.24306C22.5119 1.96531 22.2079 1.74298 21.8681 1.59055C21.5282 1.43812 21.16 1.35902 20.7875 1.3584C20.415 1.35778 20.0466 1.43566 19.7062 1.58696C19.3659 1.73825 19.0612 1.95958 18.8121 2.2365L17.6531 3.53062C17.1918 3.20353 16.6356 3.03754 16.0705 3.05832C15.5054 3.07911 14.9629 3.28551 14.5269 3.64561C14.0909 4.00571 13.7857 4.49944 13.6585 5.05043C13.5313 5.60142 13.5892 6.17897 13.8232 6.69375ZM18.8094 8.51156L16.5834 5.93906C17.1006 6.18825 17.6857 6.25901 18.2474 6.14027C18.809 6.02153 19.3155 5.71999 19.6875 5.28281L20.7375 3.92044L21.903 5.30119C22.2664 5.72378 22.7566 6.01765 23.3006 6.13898C23.8446 6.26031 24.4132 6.20262 24.9218 5.9745L22.7062 8.51156H18.8094ZM6.5625 27.8578C6.5625 19.9986 12.9307 13.6303 20.79 13.6303C28.6493 13.6303 35.0175 19.9986 35.0044 27.8552V27.8578C35.0033 30.5552 33.9313 33.1419 32.0239 35.0493C30.1166 36.9566 27.5299 38.0286 24.8325 38.0297H16.7344C14.0369 38.0286 11.4503 36.9566 9.54293 35.0493C7.63556 33.1419 6.56354 30.5552 6.5625 27.8578Z" fill="black"/>
</g>
</g>
</svg>
