<svg width="46" height="46" viewBox="0 0 46 46" fill="none" xmlns="http://www.w3.org/2000/svg">
<g id="clarity:talk-bubbles-line" clip-path="url(#clip0_26_178)">
<path id="Vector" d="M29.25 33C29.25 33.3315 29.1183 33.6495 28.8839 33.8839C28.6495 34.1183 28.3315 34.25 28 34.25H10.5C10.225 34.25 9.9625 34.5 9.7375 34.6625L5.5 38V18C5.5 17.6685 5.6317 17.3505 5.86612 17.1161C6.10054 16.8817 6.41848 16.75 6.75 16.75H11.575V14.25H6.75C5.75544 14.25 4.80161 14.6451 4.09835 15.3483C3.39509 16.0516 3 17.0054 3 18V40.5C3.00186 40.7321 3.06833 40.9592 3.19197 41.1557C3.31561 41.3522 3.49152 41.5104 3.7 41.6125C3.90085 41.7038 4.1223 41.7404 4.34184 41.7184C4.56139 41.6965 4.77122 41.6168 4.95 41.4875L11.3875 36.75H28.1875C28.6613 36.764 29.1329 36.6806 29.5731 36.5049C30.0133 36.3293 30.4127 36.0651 30.7467 35.7288C31.0807 35.3925 31.3421 34.9912 31.5146 34.5497C31.6872 34.1083 31.7673 33.6362 31.75 33.1625V31.75H29.25V33Z" fill="black"/>
<path id="Vector_2" d="M39.25 5.5H18C17.0054 5.5 16.0516 5.89509 15.3483 6.59835C14.6451 7.30161 14.25 8.25544 14.25 9.25V24.25C14.25 25.2446 14.6451 26.1984 15.3483 26.9017C16.0516 27.6049 17.0054 28 18 28H34.9375L40.9125 32.6375C41.0901 32.7688 41.2994 32.8507 41.5189 32.8749C41.7385 32.899 41.9606 32.8646 42.1625 32.775C42.3752 32.6737 42.555 32.5143 42.681 32.3153C42.8071 32.1162 42.8743 31.8856 42.875 31.65V9.25C42.8755 8.27672 42.4977 7.34136 41.8212 6.64158C41.1448 5.94181 40.2227 5.53244 39.25 5.5ZM40.5 29.175L36.125 25.7625C35.9068 25.5932 35.6387 25.5009 35.3625 25.5H18C17.6685 25.5 17.3505 25.3683 17.1161 25.1339C16.8817 24.8995 16.75 24.5815 16.75 24.25V9.25C16.75 8.91848 16.8817 8.60054 17.1161 8.36612C17.3505 8.1317 17.6685 8 18 8H39.25C39.5841 8.03033 39.8957 8.18177 40.1259 8.42582C40.3561 8.66986 40.4892 8.98967 40.5 9.325V29.175Z" fill="black"/>
</g>
<defs>
<clipPath id="clip0_26_178">
<rect width="45" height="45" fill="white" transform="translate(0.5 0.5)"/>
</clipPath>
</defs>
</svg>
