<svg width="30" height="31" viewBox="0 0 30 31" fill="none" xmlns="http://www.w3.org/2000/svg">
<rect y="0.5" width="30" height="30" rx="15" fill="#98CC01"/>
<path d="M17.0804 8.25C16.9726 8.25 16.863 8.27922 16.7626 8.3468L10.2877 12.5788H7.29224C7.13151 12.5788 7 12.7103 7 12.871V18.1313C7 18.292 7.13151 18.4235 7.29224 18.4235H10.2877L16.7626 22.6555C16.863 22.7212 16.9744 22.7523 17.0804 22.7523C17.3854 22.7523 17.6667 22.5094 17.6667 22.166V8.8363C17.6667 8.49292 17.3854 8.25 17.0804 8.25ZM16.3516 20.8162L11.0073 17.3222L10.6785 17.1085H8.31507V13.8938H10.6785L11.0055 13.6801L16.3516 10.1861V20.8162ZM22.7078 14.8436H20.3699C20.2091 14.8436 20.0776 14.9751 20.0776 15.1358V15.8664C20.0776 16.0272 20.2091 16.1587 20.3699 16.1587H22.7078C22.8685 16.1587 23 16.0272 23 15.8664V15.1358C23 14.9751 22.8685 14.8436 22.7078 14.8436ZM21.9425 19.6253L19.9279 18.4619C19.8948 18.4429 19.8582 18.4307 19.8204 18.4258C19.7826 18.421 19.7442 18.4237 19.7074 18.4337C19.6706 18.4437 19.6361 18.4608 19.6059 18.4842C19.5757 18.5075 19.5505 18.5365 19.5315 18.5696L19.168 19.1998C19.0877 19.3386 19.1352 19.5176 19.274 19.598L21.2886 20.7614C21.3217 20.7804 21.3582 20.7926 21.396 20.7975C21.4339 20.8023 21.4723 20.7996 21.5091 20.7896C21.5459 20.7796 21.5804 20.7625 21.6105 20.7391C21.6407 20.7158 21.666 20.6868 21.6849 20.6537L22.0484 20.0235C22.1288 19.8847 22.0795 19.7057 21.9425 19.6253ZM19.5297 12.4327C19.5486 12.4658 19.5739 12.4948 19.6041 12.5181C19.6343 12.5415 19.6687 12.5586 19.7055 12.5686C19.7423 12.5786 19.7808 12.5813 19.8186 12.5765C19.8564 12.5716 19.8929 12.5594 19.926 12.5404L21.9406 11.3769C22.0795 11.2966 22.1269 11.1176 22.0466 10.9788L21.6849 10.3505C21.666 10.3174 21.6407 10.2883 21.6105 10.265C21.5804 10.2416 21.5459 10.2245 21.5091 10.2145C21.4723 10.2045 21.4339 10.2018 21.396 10.2067C21.3582 10.2115 21.3217 10.2237 21.2886 10.2427L19.274 11.4062C19.2073 11.4451 19.1587 11.5088 19.1388 11.5834C19.119 11.658 19.1295 11.7374 19.168 11.8043L19.5297 12.4327Z" fill="white"/>
</svg>
