<svg width="15" height="18" viewBox="0 0 15 18" fill="none" xmlns="http://www.w3.org/2000/svg">
<g clip-path="url(#clip0_71_36)">
<path d="M6 0.9375C3.92887 0.9375 2.25 2.61637 2.25 4.6875C2.25 6.75862 3.92887 8.4375 6 8.4375C8.07112 8.4375 9.75 6.75862 9.75 4.6875C9.75 2.61637 8.07112 0.9375 6 0.9375ZM1.59375 9.9375C1.17113 9.9375 0.765806 10.1054 0.466931 10.4042C0.168056 10.703 9.94409e-05 11.1082 0 11.5309V11.8125C0 13.2206 0.72825 14.2751 1.845 14.955C2.94375 15.6236 4.41937 15.9375 5.99925 15.9375C5.99975 15.8142 6.01625 15.6889 6.04875 15.5614L6.363 14.3482C6.44565 14.0295 6.61082 13.7381 6.84187 13.5034L10.3534 9.9375H1.59375ZM14.5627 8.8755C14.4234 8.73612 14.2579 8.62571 14.0758 8.55063C13.8936 8.47555 13.6983 8.4373 13.5013 8.43806C13.3042 8.43883 13.1093 8.47861 12.9277 8.5551C12.7461 8.6316 12.5814 8.74329 12.4432 8.88375L7.37662 14.0299C7.23793 14.1706 7.13872 14.3453 7.089 14.5365L6.77475 15.7492C6.63112 16.3031 7.13512 16.8067 7.68862 16.6635L8.90175 16.3489C9.09291 16.2992 9.26764 16.2002 9.40837 16.0616L14.5545 10.995C14.6949 10.8568 14.8065 10.6922 14.883 10.5106C14.9595 10.3291 14.9992 10.1342 15 9.93715C15.0008 9.74015 14.9625 9.54495 14.8875 9.3628C14.8124 9.18065 14.7021 9.01516 14.5627 8.87587" fill="#989EA0"/>
</g>
<defs>
<clipPath id="clip0_71_36">
<rect width="15" height="16.125" fill="white" transform="translate(0 0.9375)"/>
</clipPath>
</defs>
</svg>
