<svg width="26" height="27" viewBox="0 0 26 27" fill="none" xmlns="http://www.w3.org/2000/svg">
<path id="Vector" d="M19.0817 17.3075C20.6552 15.1603 21.3599 12.4983 21.055 9.85382C20.75 7.20939 19.4578 4.77763 17.4368 3.04504C15.4159 1.31245 12.8153 0.40681 10.1553 0.509304C7.49535 0.611798 4.97215 1.71487 3.09053 3.59783C1.20892 5.48079 0.107653 8.00478 0.00706234 10.6648C-0.0935281 13.3249 0.813973 15.9248 2.54801 17.9445C4.28204 19.9642 6.71473 21.2547 9.35938 21.5578C12.004 21.8609 14.6656 21.1542 16.8116 19.5792H16.81C16.8576 19.6442 16.9107 19.7065 16.9692 19.7661L23.2255 26.0223C23.5302 26.3272 23.9435 26.4986 24.3746 26.4988C24.8056 26.4989 25.2191 26.3278 25.524 26.0231C25.8289 25.7184 26.0003 25.3051 26.0005 24.874C26.0006 24.443 25.8295 24.0295 25.5248 23.7246L19.2686 17.4683C19.2105 17.4095 19.1481 17.3568 19.0817 17.3075ZM19.501 11.061C19.501 12.2346 19.2698 13.3968 18.8206 14.4812C18.3715 15.5655 17.7132 16.5508 16.8832 17.3807C16.0533 18.2106 15.0681 18.869 13.9837 19.3181C12.8994 19.7673 11.7372 19.9985 10.5635 19.9985C9.38978 19.9985 8.22758 19.7673 7.14324 19.3181C6.05889 18.869 5.07363 18.2106 4.2437 17.3807C3.41378 16.5508 2.75545 15.5655 2.3063 14.4812C1.85715 13.3968 1.62597 12.2346 1.62597 11.061C1.62597 8.69058 2.5676 6.41729 4.2437 4.74119C5.91981 3.06508 8.1931 2.12345 10.5635 2.12345C12.9338 2.12345 15.2071 3.06508 16.8832 4.74119C18.5593 6.41729 19.501 8.69058 19.501 11.061Z" fill="#8B95A1"/>
</svg>
