<svg width="114" height="114" viewBox="0 0 114 114" fill="none" xmlns="http://www.w3.org/2000/svg">
<g filter="url(#filter0_d_26_136)">
<rect x="7" y="7" width="100" height="100" rx="40" fill="white"/>
<g clip-path="url(#clip0_26_136)">
<path d="M63.25 67C63.25 67.3315 63.1183 67.6495 62.8839 67.8839C62.6495 68.1183 62.3315 68.25 62 68.25H44.5C44.225 68.25 43.9625 68.5 43.7375 68.6625L39.5 72V52C39.5 51.6685 39.6317 51.3505 39.8661 51.1161C40.1005 50.8817 40.4185 50.75 40.75 50.75H45.575V48.25H40.75C39.7554 48.25 38.8016 48.6451 38.0983 49.3483C37.3951 50.0516 37 51.0054 37 52V74.5C37.0019 74.7321 37.0683 74.9592 37.192 75.1557C37.3156 75.3522 37.4915 75.5104 37.7 75.6125C37.9008 75.7038 38.1223 75.7404 38.3418 75.7184C38.5614 75.6965 38.7712 75.6168 38.95 75.4875L45.3875 70.75H62.1875C62.6613 70.764 63.1329 70.6806 63.5731 70.5049C64.0133 70.3293 64.4127 70.0651 64.7467 69.7288C65.0807 69.3925 65.3421 68.9912 65.5146 68.5497C65.6872 68.1083 65.7673 67.6362 65.75 67.1625V65.75H63.25V67Z" fill="black"/>
<path d="M73.25 39.5H52C51.0054 39.5 50.0516 39.8951 49.3483 40.5983C48.6451 41.3016 48.25 42.2554 48.25 43.25V58.25C48.25 59.2446 48.6451 60.1984 49.3483 60.9017C50.0516 61.6049 51.0054 62 52 62H68.9375L74.9125 66.6375C75.0901 66.7688 75.2994 66.8507 75.5189 66.8749C75.7385 66.899 75.9606 66.8646 76.1625 66.775C76.3752 66.6737 76.555 66.5143 76.681 66.3153C76.8071 66.1162 76.8743 65.8856 76.875 65.65V43.25C76.8755 42.2767 76.4977 41.3414 75.8212 40.6416C75.1448 39.9418 74.2227 39.5324 73.25 39.5ZM74.5 63.175L70.125 59.7625C69.9068 59.5932 69.6387 59.5009 69.3625 59.5H52C51.6685 59.5 51.3505 59.3683 51.1161 59.1339C50.8817 58.8995 50.75 58.5815 50.75 58.25V43.25C50.75 42.9185 50.8817 42.6005 51.1161 42.3661C51.3505 42.1317 51.6685 42 52 42H73.25C73.5841 42.0303 73.8957 42.1818 74.1259 42.4258C74.3561 42.6699 74.4892 42.9897 74.5 43.325V63.175Z" fill="black"/>
</g>
</g>
<defs>
<filter id="filter0_d_26_136" x="0" y="0" width="114" height="114" filterUnits="userSpaceOnUse" color-interpolation-filters="sRGB">
<feFlood flood-opacity="0" result="BackgroundImageFix"/>
<feColorMatrix in="SourceAlpha" type="matrix" values="0 0 0 0 0 0 0 0 0 0 0 0 0 0 0 0 0 0 127 0" result="hardAlpha"/>
<feOffset/>
<feGaussianBlur stdDeviation="3.5"/>
<feComposite in2="hardAlpha" operator="out"/>
<feColorMatrix type="matrix" values="0 0 0 0 0 0 0 0 0 0 0 0 0 0 0 0 0 0 0.14 0"/>
<feBlend mode="normal" in2="BackgroundImageFix" result="effect1_dropShadow_26_136"/>
<feBlend mode="normal" in="SourceGraphic" in2="effect1_dropShadow_26_136" result="shape"/>
</filter>
<clipPath id="clip0_26_136">
<rect width="45" height="45" fill="white" transform="translate(34.5 34.5)"/>
</clipPath>
</defs>
</svg>
