<svg width="114" height="114" viewBox="0 0 114 114" fill="none" xmlns="http://www.w3.org/2000/svg">
<g filter="url(#filter0_d_26_166)">
<rect x="7" y="7" width="100" height="100" rx="40" fill="white"/>
<path d="M67.7812 43.3437C66.7196 43.3429 65.6954 43.7353 64.9062 44.4452V41.9062C64.9047 40.7915 64.4716 39.7206 63.6978 38.9182C62.924 38.1158 61.8695 37.6442 60.7555 37.6024C59.6416 37.5606 58.5547 37.9517 57.7228 38.6938C56.891 39.4359 56.3788 40.4713 56.2938 41.5828C55.6747 41.0247 54.9071 40.6579 54.0839 40.5269C53.2607 40.3959 52.4172 40.5063 51.6554 40.8447C50.8937 41.1831 50.2463 41.735 49.7917 42.4336C49.337 43.1323 49.0946 43.9477 49.0937 44.7812V58.7968L47.0722 55.5517C46.5022 54.56 45.5616 53.8353 44.4574 53.537C43.3531 53.2388 42.1756 53.3915 41.1838 53.9615C40.1921 54.5314 39.4674 55.472 39.1692 56.5763C38.871 57.6806 39.0236 58.8581 39.5936 59.8498C45.579 72.4747 48.7648 76.4062 56.9999 76.4062C61.0017 76.4019 64.8384 74.8103 67.6681 71.9806C70.4978 69.1509 72.0894 65.3143 72.0937 61.3125V47.6562C72.0937 46.5125 71.6393 45.4156 70.8306 44.6068C70.0218 43.7981 68.9249 43.3437 67.7812 43.3437ZM70.6562 61.3125C70.6519 64.933 69.2117 68.404 66.6516 70.9642C64.0915 73.5243 60.6205 74.9644 56.9999 74.9687C50.2994 74.9687 47.3705 72.9005 40.8802 59.2083L40.8532 59.1562C40.4831 58.4966 40.3879 57.7177 40.5881 56.9883C40.7883 56.259 41.2679 55.6379 41.9229 55.2597C42.5779 54.8815 43.3556 54.7766 44.0874 54.9678C44.8191 55.159 45.4461 55.6309 45.8323 56.2812C45.837 56.2881 45.8412 56.2953 45.8449 56.3028L49.2015 61.6934C49.2839 61.8264 49.4075 61.9289 49.5535 61.9853C49.6995 62.0417 49.8599 62.0488 50.0104 62.0057C50.1608 61.9626 50.2931 61.8716 50.3871 61.7465C50.4811 61.6214 50.5317 61.469 50.5312 61.3125V44.7812C50.5312 44.0187 50.8341 43.2875 51.3732 42.7483C51.9124 42.2091 52.6437 41.9062 53.4062 41.9062C54.1687 41.9062 54.8999 42.2091 55.4391 42.7483C55.9783 43.2875 56.2812 44.0187 56.2812 44.7812V55.5625C56.2812 55.7531 56.3569 55.9359 56.4917 56.0707C56.6265 56.2055 56.8093 56.2812 56.9999 56.2812C57.1905 56.2812 57.3734 56.2055 57.5082 56.0707C57.643 55.9359 57.7187 55.7531 57.7187 55.5625V41.9062C57.7187 41.1437 58.0216 40.4125 58.5607 39.8733C59.0999 39.3341 59.8312 39.0312 60.5937 39.0312C61.3562 39.0312 62.0874 39.3341 62.6266 39.8733C63.1658 40.4125 63.4687 41.1437 63.4687 41.9062V55.5625C63.4687 55.7531 63.5444 55.9359 63.6792 56.0707C63.814 56.2055 63.9968 56.2812 64.1874 56.2812C64.378 56.2812 64.5609 56.2055 64.6957 56.0707C64.8304 55.9359 64.9062 55.7531 64.9062 55.5625V47.6562C64.9062 46.8937 65.2091 46.1625 65.7482 45.6233C66.2874 45.0841 67.0187 44.7812 67.7812 44.7812C68.5437 44.7812 69.2749 45.0841 69.8141 45.6233C70.3533 46.1625 70.6562 46.8937 70.6562 47.6562V61.3125Z" fill="black"/>
</g>
<defs>
<filter id="filter0_d_26_166" x="0" y="0" width="114" height="114" filterUnits="userSpaceOnUse" color-interpolation-filters="sRGB">
<feFlood flood-opacity="0" result="BackgroundImageFix"/>
<feColorMatrix in="SourceAlpha" type="matrix" values="0 0 0 0 0 0 0 0 0 0 0 0 0 0 0 0 0 0 127 0" result="hardAlpha"/>
<feOffset/>
<feGaussianBlur stdDeviation="3.5"/>
<feComposite in2="hardAlpha" operator="out"/>
<feColorMatrix type="matrix" values="0 0 0 0 0 0 0 0 0 0 0 0 0 0 0 0 0 0 0.14 0"/>
<feBlend mode="normal" in2="BackgroundImageFix" result="effect1_dropShadow_26_166"/>
<feBlend mode="normal" in="SourceGraphic" in2="effect1_dropShadow_26_166" result="shape"/>
</filter>
</defs>
</svg>
