<svg width="114" height="114" viewBox="0 0 114 114" fill="none" xmlns="http://www.w3.org/2000/svg">
<g filter="url(#filter0_d_26_130)">
<rect x="7" y="7" width="100" height="100" rx="40" fill="white"/>
<path d="M56.7899 61.3903H56.8818C58.8505 61.4428 60.4255 63.0441 60.4255 65.0128C60.4255 66.6928 59.2837 68.0972 57.7349 68.5172V69.9872C57.7349 70.5122 57.3149 70.9322 56.7899 70.9322C56.2649 70.9322 55.8449 70.5122 55.8449 69.9872V68.5172C55.0737 68.3099 54.3923 67.8543 53.906 67.2208C53.4196 66.5874 53.1555 65.8114 53.1543 65.0128C53.1543 64.4878 53.5743 64.0678 54.0993 64.0678C54.6243 64.0678 55.0443 64.4878 55.0443 65.0128C55.0443 65.9841 55.8187 66.7585 56.7768 66.7585C57.7349 66.7585 58.5224 65.971 58.5224 65.0128C58.5224 64.0547 57.7349 63.2672 56.7768 63.2672H56.6849C55.7407 63.2416 54.8437 62.8489 54.1845 62.1725C53.5252 61.496 53.1557 60.5893 53.1543 59.6447C53.1543 57.9647 54.2962 56.5603 55.8449 56.1403V54.6703C55.8449 54.1453 56.2649 53.7253 56.7899 53.7253C57.3149 53.7253 57.7349 54.1453 57.7349 54.6703V56.1403C59.2837 56.5603 60.4255 57.9647 60.4255 59.6447C60.4255 60.1697 60.0055 60.5897 59.4805 60.5897C58.9555 60.5897 58.5355 60.1697 58.5355 59.6447C58.5355 58.6866 57.748 57.8991 56.7899 57.8991C55.8318 57.8991 55.0443 58.6866 55.0443 59.6447C55.0443 60.6028 55.8318 61.3903 56.7899 61.3903Z" fill="black"/>
<path d="M49.8232 42.6937L53.4799 46.9725L53.0848 47.4135C45.5589 49.1014 39.9375 55.8227 39.9375 63.8578C39.9375 70.9217 45.6705 76.6547 52.7344 76.6547H60.8325C67.8964 76.6547 73.6294 70.923 73.6294 63.8591C73.6425 55.8227 68.0211 49.1014 60.4952 47.4135C60.5258 47.1361 60.4757 46.8559 60.3508 46.6063L63.4614 43.0455L63.6623 42.7357C63.8967 42.2243 63.9567 41.65 63.833 41.1011C63.7092 40.5523 63.4086 40.0593 62.9773 39.6979C62.546 39.3366 62.008 39.1269 61.446 39.1012C60.8839 39.0755 60.329 39.2351 59.8665 39.5556L58.7601 38.2431C58.5119 37.9653 58.2079 37.743 57.8681 37.5906C57.5282 37.4381 57.16 37.359 56.7875 37.3584C56.415 37.3578 56.0466 37.4357 55.7062 37.587C55.3659 37.7383 55.0612 37.9596 54.8121 38.2365L53.6531 39.5306C53.1918 39.2035 52.6356 39.0375 52.0705 39.0583C51.5054 39.0791 50.9629 39.2855 50.5269 39.6456C50.0909 40.0057 49.7857 40.4994 49.6585 41.0504C49.5313 41.6014 49.5892 42.179 49.8232 42.6937ZM54.8094 44.5116L52.5834 41.9391C53.1006 42.1883 53.6857 42.259 54.2474 42.1403C54.809 42.0215 55.3155 41.72 55.6875 41.2828L56.7375 39.9204L57.903 41.3012C58.2664 41.7238 58.7566 42.0176 59.3006 42.139C59.8446 42.2603 60.4132 42.2026 60.9218 41.9745L58.7062 44.5116H54.8094ZM42.5625 63.8578C42.5625 55.9986 48.9307 49.6303 56.79 49.6303C64.6493 49.6303 71.0175 55.9986 71.0044 63.8552V63.8578C71.0033 66.5552 69.9313 69.1419 68.0239 71.0493C66.1166 72.9566 63.5299 74.0286 60.8325 74.0297H52.7344C50.0369 74.0286 47.4503 72.9566 45.5429 71.0493C43.6356 69.1419 42.5635 66.5552 42.5625 63.8578Z" fill="black"/>
</g>
<defs>
<filter id="filter0_d_26_130" x="0" y="0" width="114" height="114" filterUnits="userSpaceOnUse" color-interpolation-filters="sRGB">
<feFlood flood-opacity="0" result="BackgroundImageFix"/>
<feColorMatrix in="SourceAlpha" type="matrix" values="0 0 0 0 0 0 0 0 0 0 0 0 0 0 0 0 0 0 127 0" result="hardAlpha"/>
<feOffset/>
<feGaussianBlur stdDeviation="3.5"/>
<feComposite in2="hardAlpha" operator="out"/>
<feColorMatrix type="matrix" values="0 0 0 0 0 0 0 0 0 0 0 0 0 0 0 0 0 0 0.14 0"/>
<feBlend mode="normal" in2="BackgroundImageFix" result="effect1_dropShadow_26_130"/>
<feBlend mode="normal" in="SourceGraphic" in2="effect1_dropShadow_26_130" result="shape"/>
</filter>
</defs>
</svg>
